<?xml version="1.0" encoding="utf-8"?>
<!-- Generator: Adobe Illustrator 21.1.0, SVG Export Plug-In . SVG Version: 6.00 Build 0)  -->
<svg version="1.1" id="Слой_5" xmlns="http://www.w3.org/2000/svg" xmlns:xlink="http://www.w3.org/1999/xlink" x="0px" y="0px"
	 viewBox="0 0 384 384" style="enable-background:new 0 0 384 384;" xml:space="preserve">
<style type="text/css">
	.st0{fill:#FFFFFF;}
</style>
<g>
	<path class="st0" d="M192,20c45.9,0,89.1,17.9,121.6,50.4S364,146.1,364,192s-17.9,89.1-50.4,121.6S237.9,364,192,364
		s-89.1-17.9-121.6-50.4S20,237.9,20,192s17.9-89.1,50.4-121.6S146.1,20,192,20 M192,0C86,0,0,86,0,192s86,192,192,192
		s192-86,192-192S298,0,192,0L192,0z"/>
</g>
<path class="st0" d="M287.8,267.6c-1.8-7.9-10-13.4-14.1-20.8c-4.1-7.4-4.8-28.4-4.8-28.4v-62.4c0-42.6-34.5-77.1-77.1-77.1
	s-77.1,34.5-77.1,77.1v62.4c0,0-0.5,18.5-2.7,23.6c-2.4,8-13.6,19.2-14.7,21.2c-1.1,2-2.2,6.6-1.6,12.3c0,5.5,5.9,14.6,9.5,17
	c3.6,2.4,9.4,7.9,18.1,7.5c15.4,1.4,22.3-15.5,22.3-15.5s6,20.1,21.7,20.5c19.4,0.4,24.6-15.5,24.6-15.5s9.5,16,21.5,16
	c19.5,0,25.1-20.7,25.1-20.7s6.7,12.5,15.9,15.1c5.2,1,14.8,0.3,24.8-8C287.8,284.3,289.6,273.4,287.8,267.6z M162.5,194.3
	c-6.5,0-11.8-5.3-11.8-11.8c0-6.5,5.3-11.8,11.8-11.8c6.5,0,11.8,5.3,11.8,11.8C174.4,189,169.1,194.3,162.5,194.3z M222.1,194.3
	c-6.5,0-11.8-5.3-11.8-11.8c0-6.5,5.3-11.8,11.8-11.8c6.5,0,11.8,5.3,11.8,11.8C234,189,228.7,194.3,222.1,194.3z"/>
</svg>
